<mxfile host="app.diagrams.net" modified="2024-03-23T15:46:16.716Z" agent="Mozilla/5.0 (Windows NT 10.0; Win64; x64) AppleWebKit/537.36 (KHTML, like Gecko) Chrome/123.0.0.0 Safari/537.36" etag="X5cbbFboLOTiYRHc0aTT" version="24.0.9" type="github">
  <diagram name="Page-1" id="tH4fSipIslfDOBdXYuQ9">
    <mxGraphModel dx="1970" dy="426" grid="1" gridSize="10" guides="1" tooltips="1" connect="1" arrows="1" fold="1" page="1" pageScale="1" pageWidth="850" pageHeight="1100" math="0" shadow="0">
      <root>
        <mxCell id="0" />
        <mxCell id="1" parent="0" />
        <mxCell id="1rG-9tMgTOMQVfQcb9hp-2" value="EMPLOYEE" style="shape=table;startSize=30;container=1;collapsible=0;childLayout=tableLayout;align=left;" vertex="1" parent="1">
          <mxGeometry x="-270" y="620" width="1020" height="70" as="geometry" />
        </mxCell>
        <mxCell id="1rG-9tMgTOMQVfQcb9hp-3" value="" style="shape=tableRow;horizontal=0;startSize=0;swimlaneHead=0;swimlaneBody=0;strokeColor=inherit;top=0;left=0;bottom=0;right=0;collapsible=0;dropTarget=0;fillColor=none;points=[[0,0.5],[1,0.5]];portConstraint=eastwest;" vertex="1" parent="1rG-9tMgTOMQVfQcb9hp-2">
          <mxGeometry y="30" width="1020" height="40" as="geometry" />
        </mxCell>
        <mxCell id="1rG-9tMgTOMQVfQcb9hp-4" value="&lt;u&gt;SSN&lt;/u&gt;" style="shape=partialRectangle;html=1;whiteSpace=wrap;connectable=0;strokeColor=inherit;overflow=hidden;fillColor=none;top=0;left=0;bottom=0;right=0;pointerEvents=1;" vertex="1" parent="1rG-9tMgTOMQVfQcb9hp-3">
          <mxGeometry width="60" height="40" as="geometry">
            <mxRectangle width="60" height="40" as="alternateBounds" />
          </mxGeometry>
        </mxCell>
        <mxCell id="1rG-9tMgTOMQVfQcb9hp-5" value="&lt;u&gt;shopId&lt;/u&gt;" style="shape=partialRectangle;html=1;whiteSpace=wrap;connectable=0;strokeColor=inherit;overflow=hidden;fillColor=none;top=0;left=0;bottom=0;right=0;pointerEvents=1;" vertex="1" parent="1rG-9tMgTOMQVfQcb9hp-3">
          <mxGeometry x="60" width="60" height="40" as="geometry">
            <mxRectangle width="60" height="40" as="alternateBounds" />
          </mxGeometry>
        </mxCell>
        <mxCell id="1rG-9tMgTOMQVfQcb9hp-6" value="Bdate" style="shape=partialRectangle;html=1;whiteSpace=wrap;connectable=0;strokeColor=inherit;overflow=hidden;fillColor=none;top=0;left=0;bottom=0;right=0;pointerEvents=1;" vertex="1" parent="1rG-9tMgTOMQVfQcb9hp-3">
          <mxGeometry x="120" width="60" height="40" as="geometry">
            <mxRectangle width="60" height="40" as="alternateBounds" />
          </mxGeometry>
        </mxCell>
        <mxCell id="1rG-9tMgTOMQVfQcb9hp-7" value="Sdate" style="shape=partialRectangle;html=1;whiteSpace=wrap;connectable=0;strokeColor=inherit;overflow=hidden;fillColor=none;top=0;left=0;bottom=0;right=0;pointerEvents=1;" vertex="1" parent="1rG-9tMgTOMQVfQcb9hp-3">
          <mxGeometry x="180" width="60" height="40" as="geometry">
            <mxRectangle width="60" height="40" as="alternateBounds" />
          </mxGeometry>
        </mxCell>
        <mxCell id="1rG-9tMgTOMQVfQcb9hp-8" value="Edate" style="shape=partialRectangle;html=1;whiteSpace=wrap;connectable=0;strokeColor=inherit;overflow=hidden;fillColor=none;top=0;left=0;bottom=0;right=0;pointerEvents=1;" vertex="1" parent="1rG-9tMgTOMQVfQcb9hp-3">
          <mxGeometry x="240" width="60" height="40" as="geometry">
            <mxRectangle width="60" height="40" as="alternateBounds" />
          </mxGeometry>
        </mxCell>
        <mxCell id="1rG-9tMgTOMQVfQcb9hp-9" value="Etype" style="shape=partialRectangle;html=1;whiteSpace=wrap;connectable=0;strokeColor=inherit;overflow=hidden;fillColor=none;top=0;left=0;bottom=0;right=0;pointerEvents=1;" vertex="1" parent="1rG-9tMgTOMQVfQcb9hp-3">
          <mxGeometry x="300" width="60" height="40" as="geometry">
            <mxRectangle width="60" height="40" as="alternateBounds" />
          </mxGeometry>
        </mxCell>
        <mxCell id="1rG-9tMgTOMQVfQcb9hp-10" value="Name" style="shape=partialRectangle;html=1;whiteSpace=wrap;connectable=0;strokeColor=inherit;overflow=hidden;fillColor=none;top=0;left=0;bottom=0;right=0;pointerEvents=1;" vertex="1" parent="1rG-9tMgTOMQVfQcb9hp-3">
          <mxGeometry x="360" width="60" height="40" as="geometry">
            <mxRectangle width="60" height="40" as="alternateBounds" />
          </mxGeometry>
        </mxCell>
        <mxCell id="1rG-9tMgTOMQVfQcb9hp-11" value="street" style="shape=partialRectangle;html=1;whiteSpace=wrap;connectable=0;strokeColor=inherit;overflow=hidden;fillColor=none;top=0;left=0;bottom=0;right=0;pointerEvents=1;" vertex="1" parent="1rG-9tMgTOMQVfQcb9hp-3">
          <mxGeometry x="420" width="60" height="40" as="geometry">
            <mxRectangle width="60" height="40" as="alternateBounds" />
          </mxGeometry>
        </mxCell>
        <mxCell id="1rG-9tMgTOMQVfQcb9hp-12" value="city" style="shape=partialRectangle;html=1;whiteSpace=wrap;connectable=0;strokeColor=inherit;overflow=hidden;fillColor=none;top=0;left=0;bottom=0;right=0;pointerEvents=1;" vertex="1" parent="1rG-9tMgTOMQVfQcb9hp-3">
          <mxGeometry x="480" width="60" height="40" as="geometry">
            <mxRectangle width="60" height="40" as="alternateBounds" />
          </mxGeometry>
        </mxCell>
        <mxCell id="1rG-9tMgTOMQVfQcb9hp-13" value="stateAb" style="shape=partialRectangle;html=1;whiteSpace=wrap;connectable=0;strokeColor=inherit;overflow=hidden;fillColor=none;top=0;left=0;bottom=0;right=0;pointerEvents=1;" vertex="1" parent="1rG-9tMgTOMQVfQcb9hp-3">
          <mxGeometry x="540" width="60" height="40" as="geometry">
            <mxRectangle width="60" height="40" as="alternateBounds" />
          </mxGeometry>
        </mxCell>
        <mxCell id="1rG-9tMgTOMQVfQcb9hp-14" value="Zipcode" style="shape=partialRectangle;html=1;whiteSpace=wrap;connectable=0;strokeColor=inherit;overflow=hidden;fillColor=none;top=0;left=0;bottom=0;right=0;pointerEvents=1;" vertex="1" parent="1rG-9tMgTOMQVfQcb9hp-3">
          <mxGeometry x="600" width="60" height="40" as="geometry">
            <mxRectangle width="60" height="40" as="alternateBounds" />
          </mxGeometry>
        </mxCell>
        <mxCell id="1rG-9tMgTOMQVfQcb9hp-15" value="Level" style="shape=partialRectangle;html=1;whiteSpace=wrap;connectable=0;strokeColor=inherit;overflow=hidden;fillColor=none;top=0;left=0;bottom=0;right=0;pointerEvents=1;" vertex="1" parent="1rG-9tMgTOMQVfQcb9hp-3">
          <mxGeometry x="660" width="60" height="40" as="geometry">
            <mxRectangle width="60" height="40" as="alternateBounds" />
          </mxGeometry>
        </mxCell>
        <mxCell id="1rG-9tMgTOMQVfQcb9hp-16" value="Asalary" style="shape=partialRectangle;html=1;whiteSpace=wrap;connectable=0;strokeColor=inherit;overflow=hidden;fillColor=none;top=0;left=0;bottom=0;right=0;pointerEvents=1;" vertex="1" parent="1rG-9tMgTOMQVfQcb9hp-3">
          <mxGeometry x="720" width="60" height="40" as="geometry">
            <mxRectangle width="60" height="40" as="alternateBounds" />
          </mxGeometry>
        </mxCell>
        <mxCell id="1rG-9tMgTOMQVfQcb9hp-17" value="Agency" style="shape=partialRectangle;html=1;whiteSpace=wrap;connectable=0;strokeColor=inherit;overflow=hidden;fillColor=none;top=0;left=0;bottom=0;right=0;pointerEvents=1;" vertex="1" parent="1rG-9tMgTOMQVfQcb9hp-3">
          <mxGeometry x="780" width="60" height="40" as="geometry">
            <mxRectangle width="60" height="40" as="alternateBounds" />
          </mxGeometry>
        </mxCell>
        <mxCell id="1rG-9tMgTOMQVfQcb9hp-18" value="Hsalary" style="shape=partialRectangle;html=1;whiteSpace=wrap;connectable=0;strokeColor=inherit;overflow=hidden;fillColor=none;top=0;left=0;bottom=0;right=0;pointerEvents=1;" vertex="1" parent="1rG-9tMgTOMQVfQcb9hp-3">
          <mxGeometry x="840" width="60" height="40" as="geometry">
            <mxRectangle width="60" height="40" as="alternateBounds" />
          </mxGeometry>
        </mxCell>
        <mxCell id="1rG-9tMgTOMQVfQcb9hp-19" value="Itype" style="shape=partialRectangle;html=1;whiteSpace=wrap;connectable=0;strokeColor=inherit;overflow=hidden;fillColor=none;top=0;left=0;bottom=0;right=0;pointerEvents=1;" vertex="1" parent="1rG-9tMgTOMQVfQcb9hp-3">
          <mxGeometry x="900" width="60" height="40" as="geometry">
            <mxRectangle width="60" height="40" as="alternateBounds" />
          </mxGeometry>
        </mxCell>
        <mxCell id="1rG-9tMgTOMQVfQcb9hp-20" value="Institue" style="shape=partialRectangle;html=1;whiteSpace=wrap;connectable=0;strokeColor=inherit;overflow=hidden;fillColor=none;top=0;left=0;bottom=0;right=0;pointerEvents=1;" vertex="1" parent="1rG-9tMgTOMQVfQcb9hp-3">
          <mxGeometry x="960" width="60" height="40" as="geometry">
            <mxRectangle width="60" height="40" as="alternateBounds" />
          </mxGeometry>
        </mxCell>
        <mxCell id="1rG-9tMgTOMQVfQcb9hp-21" value="SHOP" style="shape=table;startSize=30;container=1;collapsible=0;childLayout=tableLayout;align=left;" vertex="1" parent="1">
          <mxGeometry x="-280" y="490" width="540" height="70" as="geometry" />
        </mxCell>
        <mxCell id="1rG-9tMgTOMQVfQcb9hp-22" value="" style="shape=tableRow;horizontal=0;startSize=0;swimlaneHead=0;swimlaneBody=0;strokeColor=inherit;top=0;left=0;bottom=0;right=0;collapsible=0;dropTarget=0;fillColor=none;points=[[0,0.5],[1,0.5]];portConstraint=eastwest;" vertex="1" parent="1rG-9tMgTOMQVfQcb9hp-21">
          <mxGeometry y="30" width="540" height="40" as="geometry" />
        </mxCell>
        <mxCell id="1rG-9tMgTOMQVfQcb9hp-23" value="&lt;u&gt;sId&lt;/u&gt;" style="shape=partialRectangle;html=1;whiteSpace=wrap;connectable=0;strokeColor=inherit;overflow=hidden;fillColor=none;top=0;left=0;bottom=0;right=0;pointerEvents=1;" vertex="1" parent="1rG-9tMgTOMQVfQcb9hp-22">
          <mxGeometry width="60" height="40" as="geometry">
            <mxRectangle width="60" height="40" as="alternateBounds" />
          </mxGeometry>
        </mxCell>
        <mxCell id="1rG-9tMgTOMQVfQcb9hp-24" value="Sdate" style="shape=partialRectangle;html=1;whiteSpace=wrap;connectable=0;strokeColor=inherit;overflow=hidden;fillColor=none;top=0;left=0;bottom=0;right=0;pointerEvents=1;" vertex="1" parent="1rG-9tMgTOMQVfQcb9hp-22">
          <mxGeometry x="60" width="60" height="40" as="geometry">
            <mxRectangle width="60" height="40" as="alternateBounds" />
          </mxGeometry>
        </mxCell>
        <mxCell id="1rG-9tMgTOMQVfQcb9hp-25" value="URL" style="shape=partialRectangle;html=1;whiteSpace=wrap;connectable=0;strokeColor=inherit;overflow=hidden;fillColor=none;top=0;left=0;bottom=0;right=0;pointerEvents=1;" vertex="1" parent="1rG-9tMgTOMQVfQcb9hp-22">
          <mxGeometry x="120" width="60" height="40" as="geometry">
            <mxRectangle width="60" height="40" as="alternateBounds" />
          </mxGeometry>
        </mxCell>
        <mxCell id="1rG-9tMgTOMQVfQcb9hp-26" value="TelNo" style="shape=partialRectangle;html=1;whiteSpace=wrap;connectable=0;strokeColor=inherit;overflow=hidden;fillColor=none;top=0;left=0;bottom=0;right=0;pointerEvents=1;" vertex="1" parent="1rG-9tMgTOMQVfQcb9hp-22">
          <mxGeometry x="180" width="60" height="40" as="geometry">
            <mxRectangle width="60" height="40" as="alternateBounds" />
          </mxGeometry>
        </mxCell>
        <mxCell id="1rG-9tMgTOMQVfQcb9hp-27" value="Sname" style="shape=partialRectangle;html=1;whiteSpace=wrap;connectable=0;strokeColor=inherit;overflow=hidden;fillColor=none;top=0;left=0;bottom=0;right=0;pointerEvents=1;" vertex="1" parent="1rG-9tMgTOMQVfQcb9hp-22">
          <mxGeometry x="240" width="60" height="40" as="geometry">
            <mxRectangle width="60" height="40" as="alternateBounds" />
          </mxGeometry>
        </mxCell>
        <mxCell id="1rG-9tMgTOMQVfQcb9hp-28" value="street" style="shape=partialRectangle;html=1;whiteSpace=wrap;connectable=0;strokeColor=inherit;overflow=hidden;fillColor=none;top=0;left=0;bottom=0;right=0;pointerEvents=1;" vertex="1" parent="1rG-9tMgTOMQVfQcb9hp-22">
          <mxGeometry x="300" width="60" height="40" as="geometry">
            <mxRectangle width="60" height="40" as="alternateBounds" />
          </mxGeometry>
        </mxCell>
        <mxCell id="1rG-9tMgTOMQVfQcb9hp-29" value="city" style="shape=partialRectangle;html=1;whiteSpace=wrap;connectable=0;strokeColor=inherit;overflow=hidden;fillColor=none;top=0;left=0;bottom=0;right=0;pointerEvents=1;" vertex="1" parent="1rG-9tMgTOMQVfQcb9hp-22">
          <mxGeometry x="360" width="60" height="40" as="geometry">
            <mxRectangle width="60" height="40" as="alternateBounds" />
          </mxGeometry>
        </mxCell>
        <mxCell id="1rG-9tMgTOMQVfQcb9hp-30" value="stateAb" style="shape=partialRectangle;html=1;whiteSpace=wrap;connectable=0;strokeColor=inherit;overflow=hidden;fillColor=none;top=0;left=0;bottom=0;right=0;pointerEvents=1;" vertex="1" parent="1rG-9tMgTOMQVfQcb9hp-22">
          <mxGeometry x="420" width="60" height="40" as="geometry">
            <mxRectangle width="60" height="40" as="alternateBounds" />
          </mxGeometry>
        </mxCell>
        <mxCell id="1rG-9tMgTOMQVfQcb9hp-31" value="Zipcode" style="shape=partialRectangle;html=1;whiteSpace=wrap;connectable=0;strokeColor=inherit;overflow=hidden;fillColor=none;top=0;left=0;bottom=0;right=0;pointerEvents=1;" vertex="1" parent="1rG-9tMgTOMQVfQcb9hp-22">
          <mxGeometry x="480" width="60" height="40" as="geometry">
            <mxRectangle width="60" height="40" as="alternateBounds" />
          </mxGeometry>
        </mxCell>
        <mxCell id="1rG-9tMgTOMQVfQcb9hp-32" value="CUSTOMER" style="shape=table;startSize=30;container=1;collapsible=0;childLayout=tableLayout;align=left;" vertex="1" parent="1">
          <mxGeometry x="-510" y="720" width="420" height="70" as="geometry" />
        </mxCell>
        <mxCell id="1rG-9tMgTOMQVfQcb9hp-33" value="" style="shape=tableRow;horizontal=0;startSize=0;swimlaneHead=0;swimlaneBody=0;strokeColor=inherit;top=0;left=0;bottom=0;right=0;collapsible=0;dropTarget=0;fillColor=none;points=[[0,0.5],[1,0.5]];portConstraint=eastwest;" vertex="1" parent="1rG-9tMgTOMQVfQcb9hp-32">
          <mxGeometry y="30" width="420" height="40" as="geometry" />
        </mxCell>
        <mxCell id="1rG-9tMgTOMQVfQcb9hp-34" value="&lt;u&gt;cId&lt;/u&gt;" style="shape=partialRectangle;html=1;whiteSpace=wrap;connectable=0;strokeColor=inherit;overflow=hidden;fillColor=none;top=0;left=0;bottom=0;right=0;pointerEvents=1;" vertex="1" parent="1rG-9tMgTOMQVfQcb9hp-33">
          <mxGeometry width="60" height="40" as="geometry">
            <mxRectangle width="60" height="40" as="alternateBounds" />
          </mxGeometry>
        </mxCell>
        <mxCell id="1rG-9tMgTOMQVfQcb9hp-35" value="&lt;u&gt;shopId&lt;/u&gt;" style="shape=partialRectangle;html=1;whiteSpace=wrap;connectable=0;strokeColor=inherit;overflow=hidden;fillColor=none;top=0;left=0;bottom=0;right=0;pointerEvents=1;" vertex="1" parent="1rG-9tMgTOMQVfQcb9hp-33">
          <mxGeometry x="60" width="60" height="40" as="geometry">
            <mxRectangle width="60" height="40" as="alternateBounds" />
          </mxGeometry>
        </mxCell>
        <mxCell id="1rG-9tMgTOMQVfQcb9hp-36" value="Cname" style="shape=partialRectangle;html=1;whiteSpace=wrap;connectable=0;strokeColor=inherit;overflow=hidden;fillColor=none;top=0;left=0;bottom=0;right=0;pointerEvents=1;" vertex="1" parent="1rG-9tMgTOMQVfQcb9hp-33">
          <mxGeometry x="120" width="60" height="40" as="geometry">
            <mxRectangle width="60" height="40" as="alternateBounds" />
          </mxGeometry>
        </mxCell>
        <mxCell id="1rG-9tMgTOMQVfQcb9hp-37" value="street" style="shape=partialRectangle;html=1;whiteSpace=wrap;connectable=0;strokeColor=inherit;overflow=hidden;fillColor=none;top=0;left=0;bottom=0;right=0;pointerEvents=1;" vertex="1" parent="1rG-9tMgTOMQVfQcb9hp-33">
          <mxGeometry x="180" width="60" height="40" as="geometry">
            <mxRectangle width="60" height="40" as="alternateBounds" />
          </mxGeometry>
        </mxCell>
        <mxCell id="1rG-9tMgTOMQVfQcb9hp-38" value="city" style="shape=partialRectangle;html=1;whiteSpace=wrap;connectable=0;strokeColor=inherit;overflow=hidden;fillColor=none;top=0;left=0;bottom=0;right=0;pointerEvents=1;" vertex="1" parent="1rG-9tMgTOMQVfQcb9hp-33">
          <mxGeometry x="240" width="60" height="40" as="geometry">
            <mxRectangle width="60" height="40" as="alternateBounds" />
          </mxGeometry>
        </mxCell>
        <mxCell id="1rG-9tMgTOMQVfQcb9hp-39" value="state" style="shape=partialRectangle;html=1;whiteSpace=wrap;connectable=0;strokeColor=inherit;overflow=hidden;fillColor=none;top=0;left=0;bottom=0;right=0;pointerEvents=1;" vertex="1" parent="1rG-9tMgTOMQVfQcb9hp-33">
          <mxGeometry x="300" width="60" height="40" as="geometry">
            <mxRectangle width="60" height="40" as="alternateBounds" />
          </mxGeometry>
        </mxCell>
        <mxCell id="1rG-9tMgTOMQVfQcb9hp-40" value="Zipcode" style="shape=partialRectangle;html=1;whiteSpace=wrap;connectable=0;strokeColor=inherit;overflow=hidden;fillColor=none;top=0;left=0;bottom=0;right=0;pointerEvents=1;" vertex="1" parent="1rG-9tMgTOMQVfQcb9hp-33">
          <mxGeometry x="360" width="60" height="40" as="geometry">
            <mxRectangle width="60" height="40" as="alternateBounds" />
          </mxGeometry>
        </mxCell>
        <mxCell id="1rG-9tMgTOMQVfQcb9hp-41" value="ORDER" style="shape=table;startSize=30;container=1;collapsible=0;childLayout=tableLayout;align=left;" vertex="1" parent="1">
          <mxGeometry x="-280" y="810" width="300" height="70" as="geometry" />
        </mxCell>
        <mxCell id="1rG-9tMgTOMQVfQcb9hp-42" value="" style="shape=tableRow;horizontal=0;startSize=0;swimlaneHead=0;swimlaneBody=0;strokeColor=inherit;top=0;left=0;bottom=0;right=0;collapsible=0;dropTarget=0;fillColor=none;points=[[0,0.5],[1,0.5]];portConstraint=eastwest;" vertex="1" parent="1rG-9tMgTOMQVfQcb9hp-41">
          <mxGeometry y="30" width="300" height="40" as="geometry" />
        </mxCell>
        <mxCell id="1rG-9tMgTOMQVfQcb9hp-43" value="&lt;u&gt;oId&lt;/u&gt;" style="shape=partialRectangle;html=1;whiteSpace=wrap;connectable=0;strokeColor=inherit;overflow=hidden;fillColor=none;top=0;left=0;bottom=0;right=0;pointerEvents=1;" vertex="1" parent="1rG-9tMgTOMQVfQcb9hp-42">
          <mxGeometry width="60" height="40" as="geometry">
            <mxRectangle width="60" height="40" as="alternateBounds" />
          </mxGeometry>
        </mxCell>
        <mxCell id="1rG-9tMgTOMQVfQcb9hp-44" value="&lt;u&gt;orderSId&lt;/u&gt;" style="shape=partialRectangle;html=1;whiteSpace=wrap;connectable=0;strokeColor=inherit;overflow=hidden;fillColor=none;top=0;left=0;bottom=0;right=0;pointerEvents=1;" vertex="1" parent="1rG-9tMgTOMQVfQcb9hp-42">
          <mxGeometry x="60" width="60" height="40" as="geometry">
            <mxRectangle width="60" height="40" as="alternateBounds" />
          </mxGeometry>
        </mxCell>
        <mxCell id="1rG-9tMgTOMQVfQcb9hp-45" value="Amount" style="shape=partialRectangle;html=1;whiteSpace=wrap;connectable=0;strokeColor=inherit;overflow=hidden;fillColor=none;top=0;left=0;bottom=0;right=0;pointerEvents=1;" vertex="1" parent="1rG-9tMgTOMQVfQcb9hp-42">
          <mxGeometry x="120" width="60" height="40" as="geometry">
            <mxRectangle width="60" height="40" as="alternateBounds" />
          </mxGeometry>
        </mxCell>
        <mxCell id="1rG-9tMgTOMQVfQcb9hp-46" value="Odate" style="shape=partialRectangle;html=1;whiteSpace=wrap;connectable=0;strokeColor=inherit;overflow=hidden;fillColor=none;top=0;left=0;bottom=0;right=0;pointerEvents=1;" vertex="1" parent="1rG-9tMgTOMQVfQcb9hp-42">
          <mxGeometry x="180" width="60" height="40" as="geometry">
            <mxRectangle width="60" height="40" as="alternateBounds" />
          </mxGeometry>
        </mxCell>
        <mxCell id="1rG-9tMgTOMQVfQcb9hp-47" value="Ddate" style="shape=partialRectangle;html=1;whiteSpace=wrap;connectable=0;strokeColor=inherit;overflow=hidden;fillColor=none;top=0;left=0;bottom=0;right=0;pointerEvents=1;" vertex="1" parent="1rG-9tMgTOMQVfQcb9hp-42">
          <mxGeometry x="240" width="60" height="40" as="geometry">
            <mxRectangle width="60" height="40" as="alternateBounds" />
          </mxGeometry>
        </mxCell>
        <mxCell id="1rG-9tMgTOMQVfQcb9hp-60" value="ITEM" style="shape=table;startSize=30;container=1;collapsible=0;childLayout=tableLayout;align=left;" vertex="1" parent="1">
          <mxGeometry x="-280" y="910" width="180" height="70" as="geometry" />
        </mxCell>
        <mxCell id="1rG-9tMgTOMQVfQcb9hp-61" value="" style="shape=tableRow;horizontal=0;startSize=0;swimlaneHead=0;swimlaneBody=0;strokeColor=inherit;top=0;left=0;bottom=0;right=0;collapsible=0;dropTarget=0;fillColor=none;points=[[0,0.5],[1,0.5]];portConstraint=eastwest;" vertex="1" parent="1rG-9tMgTOMQVfQcb9hp-60">
          <mxGeometry y="30" width="180" height="40" as="geometry" />
        </mxCell>
        <mxCell id="1rG-9tMgTOMQVfQcb9hp-62" value="&lt;u&gt;iId&lt;/u&gt;" style="shape=partialRectangle;html=1;whiteSpace=wrap;connectable=0;strokeColor=inherit;overflow=hidden;fillColor=none;top=0;left=0;bottom=0;right=0;pointerEvents=1;" vertex="1" parent="1rG-9tMgTOMQVfQcb9hp-61">
          <mxGeometry width="60" height="40" as="geometry">
            <mxRectangle width="60" height="40" as="alternateBounds" />
          </mxGeometry>
        </mxCell>
        <mxCell id="1rG-9tMgTOMQVfQcb9hp-63" value="Iname" style="shape=partialRectangle;html=1;whiteSpace=wrap;connectable=0;strokeColor=inherit;overflow=hidden;fillColor=none;top=0;left=0;bottom=0;right=0;pointerEvents=1;" vertex="1" parent="1rG-9tMgTOMQVfQcb9hp-61">
          <mxGeometry x="60" width="60" height="40" as="geometry">
            <mxRectangle width="60" height="40" as="alternateBounds" />
          </mxGeometry>
        </mxCell>
        <mxCell id="1rG-9tMgTOMQVfQcb9hp-64" value="Idescrip" style="shape=partialRectangle;html=1;whiteSpace=wrap;connectable=0;strokeColor=inherit;overflow=hidden;fillColor=none;top=0;left=0;bottom=0;right=0;pointerEvents=1;" vertex="1" parent="1rG-9tMgTOMQVfQcb9hp-61">
          <mxGeometry x="120" width="60" height="40" as="geometry">
            <mxRectangle width="60" height="40" as="alternateBounds" />
          </mxGeometry>
        </mxCell>
        <mxCell id="1rG-9tMgTOMQVfQcb9hp-78" value="DEALER" style="shape=table;startSize=30;container=1;collapsible=0;childLayout=tableLayout;align=left;" vertex="1" parent="1">
          <mxGeometry x="-280" y="1010" width="480" height="70" as="geometry" />
        </mxCell>
        <mxCell id="1rG-9tMgTOMQVfQcb9hp-79" value="" style="shape=tableRow;horizontal=0;startSize=0;swimlaneHead=0;swimlaneBody=0;strokeColor=inherit;top=0;left=0;bottom=0;right=0;collapsible=0;dropTarget=0;fillColor=none;points=[[0,0.5],[1,0.5]];portConstraint=eastwest;" vertex="1" parent="1rG-9tMgTOMQVfQcb9hp-78">
          <mxGeometry y="30" width="480" height="40" as="geometry" />
        </mxCell>
        <mxCell id="1rG-9tMgTOMQVfQcb9hp-80" value="&lt;u&gt;dId&lt;/u&gt;" style="shape=partialRectangle;html=1;whiteSpace=wrap;connectable=0;strokeColor=inherit;overflow=hidden;fillColor=none;top=0;left=0;bottom=0;right=0;pointerEvents=1;" vertex="1" parent="1rG-9tMgTOMQVfQcb9hp-79">
          <mxGeometry width="60" height="40" as="geometry">
            <mxRectangle width="60" height="40" as="alternateBounds" />
          </mxGeometry>
        </mxCell>
        <mxCell id="1rG-9tMgTOMQVfQcb9hp-81" value="Dname" style="shape=partialRectangle;html=1;whiteSpace=wrap;connectable=0;strokeColor=inherit;overflow=hidden;fillColor=none;top=0;left=0;bottom=0;right=0;pointerEvents=1;" vertex="1" parent="1rG-9tMgTOMQVfQcb9hp-79">
          <mxGeometry x="60" width="60" height="40" as="geometry">
            <mxRectangle width="60" height="40" as="alternateBounds" />
          </mxGeometry>
        </mxCell>
        <mxCell id="1rG-9tMgTOMQVfQcb9hp-82" value="DTelNo" style="shape=partialRectangle;html=1;whiteSpace=wrap;connectable=0;strokeColor=inherit;overflow=hidden;fillColor=none;top=0;left=0;bottom=0;right=0;pointerEvents=1;" vertex="1" parent="1rG-9tMgTOMQVfQcb9hp-79">
          <mxGeometry x="120" width="60" height="40" as="geometry">
            <mxRectangle width="60" height="40" as="alternateBounds" />
          </mxGeometry>
        </mxCell>
        <mxCell id="1rG-9tMgTOMQVfQcb9hp-83" value="Demail" style="shape=partialRectangle;html=1;whiteSpace=wrap;connectable=0;strokeColor=inherit;overflow=hidden;fillColor=none;top=0;left=0;bottom=0;right=0;pointerEvents=1;" vertex="1" parent="1rG-9tMgTOMQVfQcb9hp-79">
          <mxGeometry x="180" width="60" height="40" as="geometry">
            <mxRectangle width="60" height="40" as="alternateBounds" />
          </mxGeometry>
        </mxCell>
        <mxCell id="1rG-9tMgTOMQVfQcb9hp-84" value="street" style="shape=partialRectangle;html=1;whiteSpace=wrap;connectable=0;strokeColor=inherit;overflow=hidden;fillColor=none;top=0;left=0;bottom=0;right=0;pointerEvents=1;" vertex="1" parent="1rG-9tMgTOMQVfQcb9hp-79">
          <mxGeometry x="240" width="60" height="40" as="geometry">
            <mxRectangle width="60" height="40" as="alternateBounds" />
          </mxGeometry>
        </mxCell>
        <mxCell id="1rG-9tMgTOMQVfQcb9hp-85" value="city" style="shape=partialRectangle;html=1;whiteSpace=wrap;connectable=0;strokeColor=inherit;overflow=hidden;fillColor=none;top=0;left=0;bottom=0;right=0;pointerEvents=1;" vertex="1" parent="1rG-9tMgTOMQVfQcb9hp-79">
          <mxGeometry x="300" width="60" height="40" as="geometry">
            <mxRectangle width="60" height="40" as="alternateBounds" />
          </mxGeometry>
        </mxCell>
        <mxCell id="1rG-9tMgTOMQVfQcb9hp-86" value="stateAb" style="shape=partialRectangle;html=1;whiteSpace=wrap;connectable=0;strokeColor=inherit;overflow=hidden;fillColor=none;top=0;left=0;bottom=0;right=0;pointerEvents=1;" vertex="1" parent="1rG-9tMgTOMQVfQcb9hp-79">
          <mxGeometry x="360" width="60" height="40" as="geometry">
            <mxRectangle width="60" height="40" as="alternateBounds" />
          </mxGeometry>
        </mxCell>
        <mxCell id="1rG-9tMgTOMQVfQcb9hp-87" value="Zipcode" style="shape=partialRectangle;html=1;whiteSpace=wrap;connectable=0;strokeColor=inherit;overflow=hidden;fillColor=none;top=0;left=0;bottom=0;right=0;pointerEvents=1;" vertex="1" parent="1rG-9tMgTOMQVfQcb9hp-79">
          <mxGeometry x="420" width="60" height="40" as="geometry">
            <mxRectangle width="60" height="40" as="alternateBounds" />
          </mxGeometry>
        </mxCell>
        <mxCell id="1rG-9tMgTOMQVfQcb9hp-88" value="CONTRACT" style="shape=table;startSize=30;container=1;collapsible=0;childLayout=tableLayout;align=left;" vertex="1" parent="1">
          <mxGeometry x="-280" y="1120" width="300" height="70" as="geometry" />
        </mxCell>
        <mxCell id="1rG-9tMgTOMQVfQcb9hp-89" value="" style="shape=tableRow;horizontal=0;startSize=0;swimlaneHead=0;swimlaneBody=0;strokeColor=inherit;top=0;left=0;bottom=0;right=0;collapsible=0;dropTarget=0;fillColor=none;points=[[0,0.5],[1,0.5]];portConstraint=eastwest;" vertex="1" parent="1rG-9tMgTOMQVfQcb9hp-88">
          <mxGeometry y="30" width="300" height="40" as="geometry" />
        </mxCell>
        <mxCell id="1rG-9tMgTOMQVfQcb9hp-90" value="&lt;u&gt;ctId&lt;/u&gt;" style="shape=partialRectangle;html=1;whiteSpace=wrap;connectable=0;strokeColor=inherit;overflow=hidden;fillColor=none;top=0;left=0;bottom=0;right=0;pointerEvents=1;" vertex="1" parent="1rG-9tMgTOMQVfQcb9hp-89">
          <mxGeometry width="60" height="40" as="geometry">
            <mxRectangle width="60" height="40" as="alternateBounds" />
          </mxGeometry>
        </mxCell>
        <mxCell id="1rG-9tMgTOMQVfQcb9hp-91" value="&lt;u&gt;dealerId&lt;/u&gt;" style="shape=partialRectangle;html=1;whiteSpace=wrap;connectable=0;strokeColor=inherit;overflow=hidden;fillColor=none;top=0;left=0;bottom=0;right=0;pointerEvents=1;" vertex="1" parent="1rG-9tMgTOMQVfQcb9hp-89">
          <mxGeometry x="60" width="60" height="40" as="geometry">
            <mxRectangle width="60" height="40" as="alternateBounds" />
          </mxGeometry>
        </mxCell>
        <mxCell id="1rG-9tMgTOMQVfQcb9hp-92" value="Ctname" style="shape=partialRectangle;html=1;whiteSpace=wrap;connectable=0;strokeColor=inherit;overflow=hidden;fillColor=none;top=0;left=0;bottom=0;right=0;pointerEvents=1;" vertex="1" parent="1rG-9tMgTOMQVfQcb9hp-89">
          <mxGeometry x="120" width="60" height="40" as="geometry">
            <mxRectangle width="60" height="40" as="alternateBounds" />
          </mxGeometry>
        </mxCell>
        <mxCell id="1rG-9tMgTOMQVfQcb9hp-93" value="Ctime" style="shape=partialRectangle;html=1;whiteSpace=wrap;connectable=0;strokeColor=inherit;overflow=hidden;fillColor=none;top=0;left=0;bottom=0;right=0;pointerEvents=1;" vertex="1" parent="1rG-9tMgTOMQVfQcb9hp-89">
          <mxGeometry x="180" width="60" height="40" as="geometry">
            <mxRectangle width="60" height="40" as="alternateBounds" />
          </mxGeometry>
        </mxCell>
        <mxCell id="1rG-9tMgTOMQVfQcb9hp-94" value="Sdate" style="shape=partialRectangle;html=1;whiteSpace=wrap;connectable=0;strokeColor=inherit;overflow=hidden;fillColor=none;top=0;left=0;bottom=0;right=0;pointerEvents=1;" vertex="1" parent="1rG-9tMgTOMQVfQcb9hp-89">
          <mxGeometry x="240" width="60" height="40" as="geometry">
            <mxRectangle width="60" height="40" as="alternateBounds" />
          </mxGeometry>
        </mxCell>
        <mxCell id="1rG-9tMgTOMQVfQcb9hp-95" value="OLDPRICE" style="shape=table;startSize=30;container=1;collapsible=0;childLayout=tableLayout;align=left;" vertex="1" parent="1">
          <mxGeometry x="-280" y="1220" width="240" height="70" as="geometry" />
        </mxCell>
        <mxCell id="1rG-9tMgTOMQVfQcb9hp-96" value="" style="shape=tableRow;horizontal=0;startSize=0;swimlaneHead=0;swimlaneBody=0;strokeColor=inherit;top=0;left=0;bottom=0;right=0;collapsible=0;dropTarget=0;fillColor=none;points=[[0,0.5],[1,0.5]];portConstraint=eastwest;" vertex="1" parent="1rG-9tMgTOMQVfQcb9hp-95">
          <mxGeometry y="30" width="240" height="40" as="geometry" />
        </mxCell>
        <mxCell id="1rG-9tMgTOMQVfQcb9hp-97" value="&lt;u&gt;oldItemId&lt;/u&gt;" style="shape=partialRectangle;html=1;whiteSpace=wrap;connectable=0;strokeColor=inherit;overflow=hidden;fillColor=none;top=0;left=0;bottom=0;right=0;pointerEvents=1;" vertex="1" parent="1rG-9tMgTOMQVfQcb9hp-96">
          <mxGeometry width="70" height="40" as="geometry">
            <mxRectangle width="70" height="40" as="alternateBounds" />
          </mxGeometry>
        </mxCell>
        <mxCell id="1rG-9tMgTOMQVfQcb9hp-98" value="Sprice" style="shape=partialRectangle;html=1;whiteSpace=wrap;connectable=0;strokeColor=inherit;overflow=hidden;fillColor=none;top=0;left=0;bottom=0;right=0;pointerEvents=1;" vertex="1" parent="1rG-9tMgTOMQVfQcb9hp-96">
          <mxGeometry x="70" width="50" height="40" as="geometry">
            <mxRectangle width="50" height="40" as="alternateBounds" />
          </mxGeometry>
        </mxCell>
        <mxCell id="1rG-9tMgTOMQVfQcb9hp-99" value="Sdate" style="shape=partialRectangle;html=1;whiteSpace=wrap;connectable=0;strokeColor=inherit;overflow=hidden;fillColor=none;top=0;left=0;bottom=0;right=0;pointerEvents=1;" vertex="1" parent="1rG-9tMgTOMQVfQcb9hp-96">
          <mxGeometry x="120" width="60" height="40" as="geometry">
            <mxRectangle width="60" height="40" as="alternateBounds" />
          </mxGeometry>
        </mxCell>
        <mxCell id="1rG-9tMgTOMQVfQcb9hp-100" value="Edate" style="shape=partialRectangle;html=1;whiteSpace=wrap;connectable=0;strokeColor=inherit;overflow=hidden;fillColor=none;top=0;left=0;bottom=0;right=0;pointerEvents=1;" vertex="1" parent="1rG-9tMgTOMQVfQcb9hp-96">
          <mxGeometry x="180" width="60" height="40" as="geometry">
            <mxRectangle width="60" height="40" as="alternateBounds" />
          </mxGeometry>
        </mxCell>
        <mxCell id="1rG-9tMgTOMQVfQcb9hp-101" value="CUSTOMER_ORDER" style="shape=table;startSize=30;container=1;collapsible=0;childLayout=tableLayout;align=left;" vertex="1" parent="1">
          <mxGeometry x="-280" y="1330" width="120" height="70" as="geometry" />
        </mxCell>
        <mxCell id="1rG-9tMgTOMQVfQcb9hp-102" value="" style="shape=tableRow;horizontal=0;startSize=0;swimlaneHead=0;swimlaneBody=0;strokeColor=inherit;top=0;left=0;bottom=0;right=0;collapsible=0;dropTarget=0;fillColor=none;points=[[0,0.5],[1,0.5]];portConstraint=eastwest;" vertex="1" parent="1rG-9tMgTOMQVfQcb9hp-101">
          <mxGeometry y="30" width="120" height="40" as="geometry" />
        </mxCell>
        <mxCell id="1rG-9tMgTOMQVfQcb9hp-103" value="&lt;u&gt;custId&lt;/u&gt;" style="shape=partialRectangle;html=1;whiteSpace=wrap;connectable=0;strokeColor=inherit;overflow=hidden;fillColor=none;top=0;left=0;bottom=0;right=0;pointerEvents=1;" vertex="1" parent="1rG-9tMgTOMQVfQcb9hp-102">
          <mxGeometry width="60" height="40" as="geometry">
            <mxRectangle width="60" height="40" as="alternateBounds" />
          </mxGeometry>
        </mxCell>
        <mxCell id="1rG-9tMgTOMQVfQcb9hp-104" value="&lt;u&gt;orderId&lt;/u&gt;" style="shape=partialRectangle;html=1;whiteSpace=wrap;connectable=0;strokeColor=inherit;overflow=hidden;fillColor=none;top=0;left=0;bottom=0;right=0;pointerEvents=1;" vertex="1" parent="1rG-9tMgTOMQVfQcb9hp-102">
          <mxGeometry x="60" width="60" height="40" as="geometry">
            <mxRectangle width="60" height="40" as="alternateBounds" />
          </mxGeometry>
        </mxCell>
        <mxCell id="1rG-9tMgTOMQVfQcb9hp-105" value="ORDER_ITEM" style="shape=table;startSize=30;container=1;collapsible=0;childLayout=tableLayout;align=left;" vertex="1" parent="1">
          <mxGeometry x="-80" y="1330" width="120" height="70" as="geometry" />
        </mxCell>
        <mxCell id="1rG-9tMgTOMQVfQcb9hp-106" value="" style="shape=tableRow;horizontal=0;startSize=0;swimlaneHead=0;swimlaneBody=0;strokeColor=inherit;top=0;left=0;bottom=0;right=0;collapsible=0;dropTarget=0;fillColor=none;points=[[0,0.5],[1,0.5]];portConstraint=eastwest;" vertex="1" parent="1rG-9tMgTOMQVfQcb9hp-105">
          <mxGeometry y="30" width="120" height="40" as="geometry" />
        </mxCell>
        <mxCell id="1rG-9tMgTOMQVfQcb9hp-107" value="&lt;u&gt;itemId&lt;/u&gt;" style="shape=partialRectangle;html=1;whiteSpace=wrap;connectable=0;strokeColor=inherit;overflow=hidden;fillColor=none;top=0;left=0;bottom=0;right=0;pointerEvents=1;" vertex="1" parent="1rG-9tMgTOMQVfQcb9hp-106">
          <mxGeometry width="60" height="40" as="geometry">
            <mxRectangle width="60" height="40" as="alternateBounds" />
          </mxGeometry>
        </mxCell>
        <mxCell id="1rG-9tMgTOMQVfQcb9hp-108" value="&lt;u&gt;orderId&lt;/u&gt;" style="shape=partialRectangle;html=1;whiteSpace=wrap;connectable=0;strokeColor=inherit;overflow=hidden;fillColor=none;top=0;left=0;bottom=0;right=0;pointerEvents=1;" vertex="1" parent="1rG-9tMgTOMQVfQcb9hp-106">
          <mxGeometry x="60" width="60" height="40" as="geometry">
            <mxRectangle width="60" height="40" as="alternateBounds" />
          </mxGeometry>
        </mxCell>
        <mxCell id="1rG-9tMgTOMQVfQcb9hp-109" value="DEALER_ITEM" style="shape=table;startSize=30;container=1;collapsible=0;childLayout=tableLayout;" vertex="1" parent="1">
          <mxGeometry x="-280" y="1440" width="120" height="70" as="geometry" />
        </mxCell>
        <mxCell id="1rG-9tMgTOMQVfQcb9hp-110" value="" style="shape=tableRow;horizontal=0;startSize=0;swimlaneHead=0;swimlaneBody=0;strokeColor=inherit;top=0;left=0;bottom=0;right=0;collapsible=0;dropTarget=0;fillColor=none;points=[[0,0.5],[1,0.5]];portConstraint=eastwest;" vertex="1" parent="1rG-9tMgTOMQVfQcb9hp-109">
          <mxGeometry y="30" width="120" height="40" as="geometry" />
        </mxCell>
        <mxCell id="1rG-9tMgTOMQVfQcb9hp-111" value="&lt;u&gt;dealerId&lt;/u&gt;" style="shape=partialRectangle;html=1;whiteSpace=wrap;connectable=0;strokeColor=inherit;overflow=hidden;fillColor=none;top=0;left=0;bottom=0;right=0;pointerEvents=1;" vertex="1" parent="1rG-9tMgTOMQVfQcb9hp-110">
          <mxGeometry width="60" height="40" as="geometry">
            <mxRectangle width="60" height="40" as="alternateBounds" />
          </mxGeometry>
        </mxCell>
        <mxCell id="1rG-9tMgTOMQVfQcb9hp-112" value="&lt;u&gt;itemId&lt;/u&gt;" style="shape=partialRectangle;html=1;whiteSpace=wrap;connectable=0;strokeColor=inherit;overflow=hidden;fillColor=none;top=0;left=0;bottom=0;right=0;pointerEvents=1;" vertex="1" parent="1rG-9tMgTOMQVfQcb9hp-110">
          <mxGeometry x="60" width="60" height="40" as="geometry">
            <mxRectangle width="60" height="40" as="alternateBounds" />
          </mxGeometry>
        </mxCell>
        <mxCell id="1rG-9tMgTOMQVfQcb9hp-113" value="DEALER_SHOP" style="shape=table;startSize=30;container=1;collapsible=0;childLayout=tableLayout;" vertex="1" parent="1">
          <mxGeometry x="-110" y="1450" width="120" height="70" as="geometry" />
        </mxCell>
        <mxCell id="1rG-9tMgTOMQVfQcb9hp-114" value="" style="shape=tableRow;horizontal=0;startSize=0;swimlaneHead=0;swimlaneBody=0;strokeColor=inherit;top=0;left=0;bottom=0;right=0;collapsible=0;dropTarget=0;fillColor=none;points=[[0,0.5],[1,0.5]];portConstraint=eastwest;" vertex="1" parent="1rG-9tMgTOMQVfQcb9hp-113">
          <mxGeometry y="30" width="120" height="40" as="geometry" />
        </mxCell>
        <mxCell id="1rG-9tMgTOMQVfQcb9hp-115" value="&lt;u&gt;dealerId&lt;/u&gt;" style="shape=partialRectangle;html=1;whiteSpace=wrap;connectable=0;strokeColor=inherit;overflow=hidden;fillColor=none;top=0;left=0;bottom=0;right=0;pointerEvents=1;" vertex="1" parent="1rG-9tMgTOMQVfQcb9hp-114">
          <mxGeometry width="60" height="40" as="geometry">
            <mxRectangle width="60" height="40" as="alternateBounds" />
          </mxGeometry>
        </mxCell>
        <mxCell id="1rG-9tMgTOMQVfQcb9hp-116" value="&lt;u&gt;shopId&lt;/u&gt;" style="shape=partialRectangle;html=1;whiteSpace=wrap;connectable=0;strokeColor=inherit;overflow=hidden;fillColor=none;top=0;left=0;bottom=0;right=0;pointerEvents=1;" vertex="1" parent="1rG-9tMgTOMQVfQcb9hp-114">
          <mxGeometry x="60" width="60" height="40" as="geometry">
            <mxRectangle width="60" height="40" as="alternateBounds" />
          </mxGeometry>
        </mxCell>
        <mxCell id="1rG-9tMgTOMQVfQcb9hp-117" value="OLDPRICE_SHOP" style="shape=table;startSize=30;container=1;collapsible=0;childLayout=tableLayout;" vertex="1" parent="1">
          <mxGeometry x="-280" y="1540" width="120" height="70" as="geometry" />
        </mxCell>
        <mxCell id="1rG-9tMgTOMQVfQcb9hp-118" value="" style="shape=tableRow;horizontal=0;startSize=0;swimlaneHead=0;swimlaneBody=0;strokeColor=inherit;top=0;left=0;bottom=0;right=0;collapsible=0;dropTarget=0;fillColor=none;points=[[0,0.5],[1,0.5]];portConstraint=eastwest;" vertex="1" parent="1rG-9tMgTOMQVfQcb9hp-117">
          <mxGeometry y="30" width="120" height="40" as="geometry" />
        </mxCell>
        <mxCell id="1rG-9tMgTOMQVfQcb9hp-119" value="&lt;u&gt;oldId&lt;/u&gt;" style="shape=partialRectangle;html=1;whiteSpace=wrap;connectable=0;strokeColor=inherit;overflow=hidden;fillColor=none;top=0;left=0;bottom=0;right=0;pointerEvents=1;" vertex="1" parent="1rG-9tMgTOMQVfQcb9hp-118">
          <mxGeometry width="60" height="40" as="geometry">
            <mxRectangle width="60" height="40" as="alternateBounds" />
          </mxGeometry>
        </mxCell>
        <mxCell id="1rG-9tMgTOMQVfQcb9hp-120" value="&lt;u&gt;shopId&lt;/u&gt;" style="shape=partialRectangle;html=1;whiteSpace=wrap;connectable=0;strokeColor=inherit;overflow=hidden;fillColor=none;top=0;left=0;bottom=0;right=0;pointerEvents=1;" vertex="1" parent="1rG-9tMgTOMQVfQcb9hp-118">
          <mxGeometry x="60" width="60" height="40" as="geometry">
            <mxRectangle width="60" height="40" as="alternateBounds" />
          </mxGeometry>
        </mxCell>
        <mxCell id="1rG-9tMgTOMQVfQcb9hp-121" value="ITEM_SHOP" style="shape=table;startSize=30;container=1;collapsible=0;childLayout=tableLayout;" vertex="1" parent="1">
          <mxGeometry x="-110" y="1540" width="120" height="70" as="geometry" />
        </mxCell>
        <mxCell id="1rG-9tMgTOMQVfQcb9hp-122" value="" style="shape=tableRow;horizontal=0;startSize=0;swimlaneHead=0;swimlaneBody=0;strokeColor=inherit;top=0;left=0;bottom=0;right=0;collapsible=0;dropTarget=0;fillColor=none;points=[[0,0.5],[1,0.5]];portConstraint=eastwest;" vertex="1" parent="1rG-9tMgTOMQVfQcb9hp-121">
          <mxGeometry y="30" width="120" height="40" as="geometry" />
        </mxCell>
        <mxCell id="1rG-9tMgTOMQVfQcb9hp-123" value="&lt;u&gt;itemId&lt;/u&gt;" style="shape=partialRectangle;html=1;whiteSpace=wrap;connectable=0;strokeColor=inherit;overflow=hidden;fillColor=none;top=0;left=0;bottom=0;right=0;pointerEvents=1;" vertex="1" parent="1rG-9tMgTOMQVfQcb9hp-122">
          <mxGeometry width="60" height="40" as="geometry">
            <mxRectangle width="60" height="40" as="alternateBounds" />
          </mxGeometry>
        </mxCell>
        <mxCell id="1rG-9tMgTOMQVfQcb9hp-124" value="&lt;u&gt;shopId&lt;/u&gt;" style="shape=partialRectangle;html=1;whiteSpace=wrap;connectable=0;strokeColor=inherit;overflow=hidden;fillColor=none;top=0;left=0;bottom=0;right=0;pointerEvents=1;" vertex="1" parent="1rG-9tMgTOMQVfQcb9hp-122">
          <mxGeometry x="60" width="60" height="40" as="geometry">
            <mxRectangle width="60" height="40" as="alternateBounds" />
          </mxGeometry>
        </mxCell>
        <mxCell id="1rG-9tMgTOMQVfQcb9hp-129" value="" style="endArrow=classic;html=1;rounded=0;exitX=0.088;exitY=1;exitDx=0;exitDy=0;exitPerimeter=0;entryX=0.048;entryY=1.05;entryDx=0;entryDy=0;entryPerimeter=0;" edge="1" parent="1" source="1rG-9tMgTOMQVfQcb9hp-3" target="1rG-9tMgTOMQVfQcb9hp-22">
          <mxGeometry width="50" height="50" relative="1" as="geometry">
            <mxPoint x="-330" y="610" as="sourcePoint" />
            <mxPoint x="-300" y="580" as="targetPoint" />
          </mxGeometry>
        </mxCell>
        <mxCell id="1rG-9tMgTOMQVfQcb9hp-130" value="" style="endArrow=classic;html=1;rounded=0;exitX=0.214;exitY=0.95;exitDx=0;exitDy=0;exitPerimeter=0;entryX=0.057;entryY=1.125;entryDx=0;entryDy=0;entryPerimeter=0;" edge="1" parent="1" source="1rG-9tMgTOMQVfQcb9hp-33" target="1rG-9tMgTOMQVfQcb9hp-22">
          <mxGeometry width="50" height="50" relative="1" as="geometry">
            <mxPoint x="-360" y="780" as="sourcePoint" />
            <mxPoint x="-310" y="730" as="targetPoint" />
          </mxGeometry>
        </mxCell>
        <mxCell id="1rG-9tMgTOMQVfQcb9hp-131" value="" style="endArrow=classic;html=1;rounded=0;exitX=0.307;exitY=0.975;exitDx=0;exitDy=0;exitPerimeter=0;entryX=0.059;entryY=1.05;entryDx=0;entryDy=0;entryPerimeter=0;" edge="1" parent="1" source="1rG-9tMgTOMQVfQcb9hp-42" target="1rG-9tMgTOMQVfQcb9hp-22">
          <mxGeometry width="50" height="50" relative="1" as="geometry">
            <mxPoint x="-100" y="780" as="sourcePoint" />
            <mxPoint x="-50" y="730" as="targetPoint" />
          </mxGeometry>
        </mxCell>
        <mxCell id="1rG-9tMgTOMQVfQcb9hp-132" value="" style="endArrow=classic;html=1;rounded=0;exitX=0.293;exitY=1;exitDx=0;exitDy=0;exitPerimeter=0;entryX=0.058;entryY=1;entryDx=0;entryDy=0;entryPerimeter=0;" edge="1" parent="1" source="1rG-9tMgTOMQVfQcb9hp-89" target="1rG-9tMgTOMQVfQcb9hp-79">
          <mxGeometry width="50" height="50" relative="1" as="geometry">
            <mxPoint x="-100" y="1060" as="sourcePoint" />
            <mxPoint x="-50" y="1010" as="targetPoint" />
          </mxGeometry>
        </mxCell>
        <mxCell id="1rG-9tMgTOMQVfQcb9hp-133" value="" style="endArrow=classic;html=1;rounded=0;exitX=0.142;exitY=1.075;exitDx=0;exitDy=0;exitPerimeter=0;entryX=0.167;entryY=1;entryDx=0;entryDy=0;entryPerimeter=0;" edge="1" parent="1" source="1rG-9tMgTOMQVfQcb9hp-96" target="1rG-9tMgTOMQVfQcb9hp-61">
          <mxGeometry width="50" height="50" relative="1" as="geometry">
            <mxPoint x="-100" y="1220" as="sourcePoint" />
            <mxPoint x="-50" y="1170" as="targetPoint" />
          </mxGeometry>
        </mxCell>
        <mxCell id="1rG-9tMgTOMQVfQcb9hp-134" value="" style="endArrow=classic;html=1;rounded=0;exitX=0.725;exitY=1.025;exitDx=0;exitDy=0;exitPerimeter=0;entryX=0.1;entryY=0.95;entryDx=0;entryDy=0;entryPerimeter=0;" edge="1" parent="1" source="1rG-9tMgTOMQVfQcb9hp-102" target="1rG-9tMgTOMQVfQcb9hp-42">
          <mxGeometry width="50" height="50" relative="1" as="geometry">
            <mxPoint x="-100" y="1420" as="sourcePoint" />
            <mxPoint x="-140" y="1320" as="targetPoint" />
          </mxGeometry>
        </mxCell>
        <mxCell id="1rG-9tMgTOMQVfQcb9hp-135" value="" style="endArrow=classic;html=1;rounded=0;exitX=0.183;exitY=1;exitDx=0;exitDy=0;exitPerimeter=0;entryX=0.079;entryY=1.1;entryDx=0;entryDy=0;entryPerimeter=0;" edge="1" parent="1" source="1rG-9tMgTOMQVfQcb9hp-102" target="1rG-9tMgTOMQVfQcb9hp-33">
          <mxGeometry width="50" height="50" relative="1" as="geometry">
            <mxPoint x="-100" y="1420" as="sourcePoint" />
            <mxPoint x="-320" y="1330" as="targetPoint" />
          </mxGeometry>
        </mxCell>
        <mxCell id="1rG-9tMgTOMQVfQcb9hp-136" value="" style="endArrow=classic;html=1;rounded=0;exitX=0.225;exitY=1.025;exitDx=0;exitDy=0;exitPerimeter=0;entryX=0.167;entryY=1;entryDx=0;entryDy=0;entryPerimeter=0;" edge="1" parent="1" source="1rG-9tMgTOMQVfQcb9hp-106" target="1rG-9tMgTOMQVfQcb9hp-61">
          <mxGeometry width="50" height="50" relative="1" as="geometry">
            <mxPoint x="-120" y="1470" as="sourcePoint" />
            <mxPoint x="-70" y="1420" as="targetPoint" />
          </mxGeometry>
        </mxCell>
        <mxCell id="1rG-9tMgTOMQVfQcb9hp-137" value="" style="endArrow=classic;html=1;rounded=0;exitX=0.742;exitY=0.95;exitDx=0;exitDy=0;exitPerimeter=0;entryX=0.1;entryY=1.05;entryDx=0;entryDy=0;entryPerimeter=0;" edge="1" parent="1" source="1rG-9tMgTOMQVfQcb9hp-106" target="1rG-9tMgTOMQVfQcb9hp-42">
          <mxGeometry width="50" height="50" relative="1" as="geometry">
            <mxPoint x="-120" y="1450" as="sourcePoint" />
            <mxPoint x="140" y="1450" as="targetPoint" />
          </mxGeometry>
        </mxCell>
        <mxCell id="1rG-9tMgTOMQVfQcb9hp-138" value="" style="endArrow=classic;html=1;rounded=0;exitX=0.242;exitY=1.025;exitDx=0;exitDy=0;exitPerimeter=0;entryX=0.06;entryY=1;entryDx=0;entryDy=0;entryPerimeter=0;" edge="1" parent="1" source="1rG-9tMgTOMQVfQcb9hp-110" target="1rG-9tMgTOMQVfQcb9hp-79">
          <mxGeometry width="50" height="50" relative="1" as="geometry">
            <mxPoint x="-120" y="1560" as="sourcePoint" />
            <mxPoint x="-70" y="1510" as="targetPoint" />
          </mxGeometry>
        </mxCell>
        <mxCell id="1rG-9tMgTOMQVfQcb9hp-139" value="" style="endArrow=classic;html=1;rounded=0;exitX=0.267;exitY=1.05;exitDx=0;exitDy=0;exitPerimeter=0;entryX=0.058;entryY=1.075;entryDx=0;entryDy=0;entryPerimeter=0;" edge="1" parent="1" source="1rG-9tMgTOMQVfQcb9hp-114" target="1rG-9tMgTOMQVfQcb9hp-79">
          <mxGeometry width="50" height="50" relative="1" as="geometry">
            <mxPoint x="-120" y="1560" as="sourcePoint" />
            <mxPoint x="200" y="1170" as="targetPoint" />
          </mxGeometry>
        </mxCell>
        <mxCell id="1rG-9tMgTOMQVfQcb9hp-140" value="" style="endArrow=classic;html=1;rounded=0;exitX=0.742;exitY=1;exitDx=0;exitDy=0;exitPerimeter=0;entryX=0.167;entryY=1;entryDx=0;entryDy=0;entryPerimeter=0;" edge="1" parent="1" source="1rG-9tMgTOMQVfQcb9hp-110" target="1rG-9tMgTOMQVfQcb9hp-61">
          <mxGeometry width="50" height="50" relative="1" as="geometry">
            <mxPoint x="-120" y="1580" as="sourcePoint" />
            <mxPoint x="-70" y="1530" as="targetPoint" />
          </mxGeometry>
        </mxCell>
        <mxCell id="1rG-9tMgTOMQVfQcb9hp-141" value="" style="endArrow=classic;html=1;rounded=0;exitX=0.742;exitY=1.075;exitDx=0;exitDy=0;exitPerimeter=0;entryX=0.056;entryY=1.075;entryDx=0;entryDy=0;entryPerimeter=0;" edge="1" parent="1" source="1rG-9tMgTOMQVfQcb9hp-114" target="1rG-9tMgTOMQVfQcb9hp-22">
          <mxGeometry width="50" height="50" relative="1" as="geometry">
            <mxPoint x="-120" y="1500" as="sourcePoint" />
            <mxPoint x="220" y="924" as="targetPoint" />
          </mxGeometry>
        </mxCell>
        <mxCell id="1rG-9tMgTOMQVfQcb9hp-142" value="" style="endArrow=classic;html=1;rounded=0;exitX=0.242;exitY=1.025;exitDx=0;exitDy=0;exitPerimeter=0;entryX=0.142;entryY=1.05;entryDx=0;entryDy=0;entryPerimeter=0;" edge="1" parent="1" source="1rG-9tMgTOMQVfQcb9hp-118" target="1rG-9tMgTOMQVfQcb9hp-96">
          <mxGeometry width="50" height="50" relative="1" as="geometry">
            <mxPoint x="-120" y="1650" as="sourcePoint" />
            <mxPoint x="-240" y="1300" as="targetPoint" />
          </mxGeometry>
        </mxCell>
        <mxCell id="1rG-9tMgTOMQVfQcb9hp-143" value="" style="endArrow=classic;html=1;rounded=0;exitX=0.75;exitY=1.05;exitDx=0;exitDy=0;exitPerimeter=0;entryX=0.059;entryY=1.075;entryDx=0;entryDy=0;entryPerimeter=0;" edge="1" parent="1" source="1rG-9tMgTOMQVfQcb9hp-118" target="1rG-9tMgTOMQVfQcb9hp-22">
          <mxGeometry width="50" height="50" relative="1" as="geometry">
            <mxPoint x="-120" y="1680" as="sourcePoint" />
            <mxPoint x="-70" y="1630" as="targetPoint" />
          </mxGeometry>
        </mxCell>
        <mxCell id="1rG-9tMgTOMQVfQcb9hp-144" value="" style="endArrow=classic;html=1;rounded=0;exitX=0.25;exitY=1.05;exitDx=0;exitDy=0;exitPerimeter=0;entryX=0.167;entryY=0.975;entryDx=0;entryDy=0;entryPerimeter=0;" edge="1" parent="1" source="1rG-9tMgTOMQVfQcb9hp-122" target="1rG-9tMgTOMQVfQcb9hp-61">
          <mxGeometry width="50" height="50" relative="1" as="geometry">
            <mxPoint x="-210" y="1720" as="sourcePoint" />
            <mxPoint x="-160" y="1670" as="targetPoint" />
          </mxGeometry>
        </mxCell>
        <mxCell id="1rG-9tMgTOMQVfQcb9hp-145" value="" style="endArrow=classic;html=1;rounded=0;exitX=0.742;exitY=1.075;exitDx=0;exitDy=0;exitPerimeter=0;entryX=0.172;entryY=1.05;entryDx=0;entryDy=0;entryPerimeter=0;" edge="1" parent="1" source="1rG-9tMgTOMQVfQcb9hp-122" target="1rG-9tMgTOMQVfQcb9hp-61">
          <mxGeometry width="50" height="50" relative="1" as="geometry">
            <mxPoint x="-120" y="1660" as="sourcePoint" />
            <mxPoint x="-10" y="1700" as="targetPoint" />
          </mxGeometry>
        </mxCell>
      </root>
    </mxGraphModel>
  </diagram>
</mxfile>
